<svg width="81" height="112" viewBox="0 0 81 112" fill="none" xmlns="http://www.w3.org/2000/svg">
<path fill-rule="evenodd" clip-rule="evenodd" d="M29.0043 88.9408C29.174 89.2805 29.3437 89.6234 29.5135 89.9663L29.5146 89.9687C29.0214 86.677 29.2384 83.5547 30.0966 80.6769C31.8556 68.5803 42.1012 59.7407 51.7952 51.3771L51.7955 51.3768C52.9561 50.3755 54.1088 49.381 55.238 48.3885L55.3719 48.2709H63.3171V51.3711C63.0536 51.625 62.7893 51.8779 62.5246 52.13C59.709 54.8109 56.6808 57.4041 53.6426 60.0059C45.781 66.7384 37.8522 73.5283 33.3651 82.0425C30.7576 86.9899 29.61 92.6901 30.6261 98.6869C30.9484 100.596 31.5971 102.521 32.4482 104.453H6.57638V48.2709H40.6737C35.7466 52.8509 31.31 57.7025 28.3605 63.2991C25.753 68.2465 24.6054 73.9468 25.6214 79.9436C26.0357 82.3977 26.9893 84.8779 28.2191 87.3647C28.1369 87.2669 28.3998 87.7912 29.0043 88.9408ZM34.2756 104.453C34.3432 102.708 34.6224 101.026 35.1013 99.4202C36.8603 87.3236 47.1059 78.484 56.7998 70.1204C57.9605 69.119 59.1133 68.1244 60.2427 67.1319C60.4283 66.9687 60.6142 66.8054 60.8002 66.6421C61.6385 65.9058 62.4795 65.1672 63.3171 64.4239V104.453H34.2756ZM69.8935 58.2733V107.741V111.029H66.6053H3.28821H3.38554e-05V107.741V44.9827V41.6945H3.28821H48.1337L48.638 41.2626C51.6762 38.6608 54.7044 36.0675 57.52 33.3867C62.3273 28.8076 67.0064 23.9515 69.5942 18.2023C70.7089 15.7123 71.4915 13.0464 71.4454 10.1848C71.4257 8.77362 71.2613 7.32656 70.8371 5.85668C70.7483 5.55032 70.653 5.24396 70.5543 4.9376C70.5987 5.0184 70.6437 5.10089 70.6897 5.18504L70.6937 5.19237C70.8376 5.4557 70.9903 5.73518 71.1561 6.02942C70.8305 5.35803 70.5182 4.68339 70.2124 4.012C70.2008 3.98188 70.1905 3.95302 70.1803 3.92459C70.1674 3.88842 70.1548 3.85295 70.14 3.81646C69.9197 3.28847 69.6534 2.76049 69.4199 2.3368C69.0286 1.55135 68.6044 0.772414 68.1079 -3.8147e-06C70.2566 3.33173 71.9205 6.76719 73.5585 10.149L73.5585 10.1491C73.7103 10.4624 73.8618 10.7753 74.0135 11.0876C74.921 12.9584 75.5754 14.8421 75.8318 16.6738C76.0949 18.5576 76.0291 20.3729 75.7168 22.1166L75.6642 22.4392C75.6328 22.6007 75.5992 22.7615 75.5635 22.9217C76.6339 24.9092 77.603 26.91 78.5631 28.8924C78.7149 29.2058 78.8664 29.5187 79.0181 29.831C79.9257 31.7017 80.58 33.5855 80.8365 35.4171C81.0995 37.3009 81.0338 39.1163 80.7214 40.8599L80.6688 41.1826C80.317 42.9946 79.6856 44.7285 78.8669 46.3744C76.6915 50.7362 73.5012 54.6238 69.8935 58.2733ZM69.8935 44.3698C71.7768 42.0439 73.4089 39.5892 74.5988 36.9457C75.7135 34.4557 76.4961 31.7897 76.4501 28.9282C76.4303 27.517 76.2659 26.0699 75.8418 24.6C75.753 24.2937 75.6576 23.9873 75.559 23.6809C75.6044 23.7638 75.6507 23.8484 75.6979 23.9348C75.8419 24.1984 75.9948 24.4782 76.1607 24.7728C75.9251 24.2867 75.6963 23.799 75.4719 23.3121C75.1033 24.8097 74.5486 26.2513 73.8622 27.631C71.2515 32.8659 67.1787 37.4178 62.6771 41.6945H66.6053H69.8935V44.3698Z" fill="white"/>
</svg>
