<svg width="32" height="33" viewBox="0 0 32 33" fill="none" xmlns="http://www.w3.org/2000/svg">
<path d="M22.6667 3.1665H9.33341C5.65152 3.1665 2.66675 6.15127 2.66675 9.83317V23.1665C2.66675 26.8484 5.65152 29.8332 9.33341 29.8332H22.6667C26.3486 29.8332 29.3334 26.8484 29.3334 23.1665V9.83317C29.3334 6.15127 26.3486 3.1665 22.6667 3.1665Z" stroke="white" stroke-width="2" stroke-linecap="round" stroke-linejoin="round"/>
<path d="M21.3333 15.6599C21.4979 16.7696 21.3084 17.9029 20.7917 18.8986C20.275 19.8943 19.4575 20.7018 18.4555 21.2061C17.4535 21.7105 16.3179 21.886 15.2104 21.7078C14.1028 21.5296 13.0797 21.0067 12.2865 20.2135C11.4932 19.4202 10.9703 18.3971 10.7921 17.2895C10.6139 16.182 10.7894 15.0464 11.2938 14.0444C11.7981 13.0424 12.6056 12.2249 13.6013 11.7082C14.5971 11.1916 15.7304 11.002 16.84 11.1666C17.9719 11.3344 19.0198 11.8619 19.8289 12.671C20.6381 13.4801 21.1655 14.528 21.3333 15.6599Z" stroke="white" stroke-width="2" stroke-linecap="round" stroke-linejoin="round"/>
<path d="M23.3333 9.1665H23.3466" stroke="white" stroke-width="2" stroke-linecap="round" stroke-linejoin="round"/>
</svg>
