<svg width="32" height="33" viewBox="0 0 32 33" fill="none" xmlns="http://www.w3.org/2000/svg">
<path d="M21.3333 11.1665C23.455 11.1665 25.4898 12.0094 26.9901 13.5096C28.4904 15.0099 29.3333 17.0448 29.3333 19.1665V28.4998H23.9999V19.1665C23.9999 18.4593 23.719 17.781 23.2189 17.2809C22.7188 16.7808 22.0405 16.4998 21.3333 16.4998C20.626 16.4998 19.9477 16.7808 19.4476 17.2809C18.9475 17.781 18.6666 18.4593 18.6666 19.1665V28.4998H13.3333V19.1665C13.3333 17.0448 14.1761 15.0099 15.6764 13.5096C17.1767 12.0094 19.2115 11.1665 21.3333 11.1665V11.1665Z" stroke="white" stroke-width="2" stroke-linecap="round" stroke-linejoin="round"/>
<path d="M8.00008 12.5H2.66675V28.5H8.00008V12.5Z" stroke="white" stroke-width="2" stroke-linecap="round" stroke-linejoin="round"/>
<path d="M5.33341 8.49984C6.80617 8.49984 8.00008 7.30593 8.00008 5.83317C8.00008 4.36041 6.80617 3.1665 5.33341 3.1665C3.86066 3.1665 2.66675 4.36041 2.66675 5.83317C2.66675 7.30593 3.86066 8.49984 5.33341 8.49984Z" stroke="white" stroke-width="2" stroke-linecap="round" stroke-linejoin="round"/>
</svg>
